<svg width="13" height="18" viewBox="0 0 13 18" fill="none" xmlns="http://www.w3.org/2000/svg">
<path d="M6.10089 0.325851C2.79247 0.325851 0.100891 3.14191 0.100891 6.6033C0.100891 10.899 5.4703 17.2053 5.69891 17.4717C5.91364 17.7219 6.28853 17.7215 6.50287 17.4717C6.73148 17.2053 12.1009 10.899 12.1009 6.6033C12.1008 3.14191 9.40928 0.325851 6.10089 0.325851ZM6.10089 9.76166C4.43634 9.76166 3.08217 8.34483 3.08217 6.6033C3.08217 4.86177 4.43638 3.44498 6.10089 3.44498C7.76541 3.44498 9.11958 4.86181 9.11958 6.60334C9.11958 8.34486 7.76541 9.76166 6.10089 9.76166Z" fill="white"/>
</svg>
