<svg width="16" height="16" viewBox="0 0 16 16" fill="none" xmlns="http://www.w3.org/2000/svg">
<path d="M3.21778 6.92444C4.49778 9.44 6.56 11.4933 9.07556 12.7822L11.0311 10.8267C11.2711 10.5867 11.6267 10.5067 11.9378 10.6133C12.9333 10.9422 14.0089 11.12 15.1111 11.12C15.6 11.12 16 11.52 16 12.0089V15.1111C16 15.6 15.6 16 15.1111 16C6.76444 16 0 9.23556 0 0.888889C0 0.4 0.4 0 0.888889 0H4C4.48889 0 4.88889 0.4 4.88889 0.888889C4.88889 2 5.06667 3.06667 5.39556 4.06222C5.49333 4.37333 5.42222 4.72 5.17333 4.96889L3.21778 6.92444Z" fill="white"/>
</svg>
